<svg width="200" height="132" viewBox="0 0 200 132" fill="none" xmlns="http://www.w3.org/2000/svg">
<g clip-path="url(#clip0_363_2919)">
<path d="M99.9993 131.755C120.738 131.755 137.55 114.943 137.55 94.2041C137.55 73.4652 120.738 56.6531 99.9993 56.6531C79.2604 56.6531 62.4482 73.4652 62.4482 94.2041C62.4482 114.943 79.2604 131.755 99.9993 131.755Z" fill="#277EE0"/>
<path fill-rule="evenodd" clip-rule="evenodd" d="M115.755 80.4898C115.265 80 114.531 80 114.122 80.4898L96.7347 97.7959C96.3265 98.2857 95.5918 98.2857 95.102 97.7959L87.5102 90.0408C87.0204 89.551 86.2857 89.551 85.8776 90.0408L82.5306 93.0612C82.2857 93.3061 82.2041 93.551 82.2041 93.8775C82.2041 94.2041 82.3673 94.5306 82.5306 94.6939L90.2041 102.775C90.6939 103.265 91.4286 104 91.8367 104.408L95.102 107.755C95.5918 108.245 96.3265 108.245 96.7347 107.755L119.102 85.4694C119.592 84.9796 119.592 84.2449 119.102 83.8367L115.755 80.4898Z" fill="white"/>
<path d="M2.31556 93.1429C3.62301 93.1429 4.68293 92.083 4.68293 90.7755C4.68293 89.4681 3.62301 88.4082 2.31556 88.4082C1.00811 88.4082 -0.0517578 89.4681 -0.0517578 90.7755C-0.0517578 92.083 1.00811 93.1429 2.31556 93.1429Z" fill="#E87073"/>
<path d="M197.662 93.1429C198.97 93.1429 200.03 92.083 200.03 90.7755C200.03 89.4681 198.97 88.4082 197.662 88.4082C196.355 88.4082 195.295 89.4681 195.295 90.7755C195.295 92.083 196.355 93.1429 197.662 93.1429Z" fill="#44D5A7"/>
<path d="M21.2238 46.6938C22.5313 46.6938 23.5912 45.6339 23.5912 44.3265C23.5912 43.019 22.5313 41.9591 21.2238 41.9591C19.9164 41.9591 18.8564 43.019 18.8564 44.3265C18.8564 45.6339 19.9164 46.6938 21.2238 46.6938Z" fill="#44D5A7"/>
<path d="M174.448 46.6938C175.756 46.6938 176.816 45.6339 176.816 44.3265C176.816 43.019 175.756 41.9591 174.448 41.9591C173.141 41.9591 172.081 43.019 172.081 44.3265C172.081 45.6339 173.141 46.6938 174.448 46.6938Z" fill="#DEF0FF"/>
<path d="M123.102 44.5714C124.409 44.5714 125.469 43.5115 125.469 42.204C125.469 40.8966 124.409 39.8367 123.102 39.8367C121.794 39.8367 120.734 40.8966 120.734 42.204C120.734 43.5115 121.794 44.5714 123.102 44.5714Z" fill="#277EE0"/>
<path d="M148.082 15.2653L150.776 16.7347C151.347 17.0612 151.592 17.7959 151.265 18.3673C151.184 18.5306 151.02 18.7755 150.776 18.8571L148.082 20.3265C147.918 20.4081 147.674 20.5714 147.592 20.8163L146.123 23.5102C145.796 24.0816 145.061 24.3265 144.49 24C144.327 23.9183 144.082 23.7551 144 23.5102L142.531 20.8163C142.449 20.653 142.286 20.4081 142.041 20.3265L139.347 18.8571C138.776 18.5306 138.531 17.7959 138.857 17.2245C138.939 17.0612 139.102 16.8163 139.347 16.7347L142.041 15.2653C142.204 15.1836 142.449 15.0204 142.531 14.7755L144 12.0816C144.327 11.5102 145.061 11.2653 145.633 11.5918C145.796 11.6734 146.041 11.8367 146.123 12.0816L147.592 14.7755C147.755 15.0204 147.918 15.1836 148.082 15.2653Z" fill="#DEF0FF"/>
<path d="M155.102 84.653L156.734 85.551C157.061 85.7142 157.224 86.204 157.061 86.5305C156.979 86.6122 156.897 86.7754 156.734 86.8571L155.102 87.755C155.02 87.8367 154.857 87.9183 154.775 88.0816L153.877 89.7142C153.714 90.0407 153.224 90.204 152.897 90.0407C152.816 89.9591 152.653 89.8775 152.571 89.7142L151.673 88.0816C151.591 87.9999 151.51 87.8367 151.346 87.755L149.714 86.8571C149.387 86.6938 149.224 86.204 149.387 85.8775C149.469 85.7958 149.551 85.6326 149.714 85.551L151.346 84.653C151.428 84.5714 151.591 84.4897 151.673 84.3265L152.571 82.6938C152.734 82.3673 153.224 82.204 153.551 82.3673C153.632 82.4489 153.795 82.5305 153.877 82.6938L154.775 84.3265C154.857 84.4081 154.938 84.5714 155.102 84.653Z" fill="#DEF0FF"/>
<path d="M67.7551 5.71423L56 11.5102L54.6123 16.5714L66.6939 9.55097L67.7551 5.71423Z" fill="#277EE0"/>
<path d="M156.571 67.1836L169.388 64.4081L171.918 59.8367L158.449 63.755L156.571 67.1836Z" fill="#E87073"/>
<path d="M98.5658 32.5193L97.7421 34.2838C95.2742 33.1468 92.1682 33.336 88.0782 34.7352C86.6572 35.1822 85.3512 35.8604 84.1486 36.6889C84.333 36.8278 84.5174 36.9668 84.6905 37.0249C86.6153 38.4031 87.3022 40.9444 86.4545 43.1244C86.1993 43.6549 85.8519 44.1159 85.4123 44.5074C83.99 45.5317 82.1434 45.2966 80.9107 44.1509C79.8511 43.0633 79.3927 41.5614 79.6733 40.0382C79.7908 39.1149 80.0814 38.2497 80.6372 37.5121C80.06 37.5108 79.4827 37.5095 78.9169 37.589C77.7851 37.7481 76.7797 38.2191 75.9814 38.9908L76.1658 39.1297C78.6451 40.3475 79.2966 43.2236 79.0261 45.405C78.9794 45.6588 78.944 45.9936 78.7242 46.1893C78.3768 46.6503 77.8336 46.8915 77.2564 46.8902C76.0906 46.8067 75.0297 46.2964 74.258 45.498C73.5331 44.4458 73.0974 43.1057 73.0773 41.7895C73.0319 41.4662 73.0672 41.1315 73.1026 40.7967C72.0277 41.36 71.0791 42.2352 70.6609 43.3657C69.721 45.4762 70.0845 48.063 70.3913 50.2456L68.4512 50.5183C68.1217 48.174 67.7013 45.183 68.8156 42.5533C69.5003 40.9733 70.7964 39.637 72.4371 38.9943C72.83 38.8566 73.3036 38.7076 73.7078 38.6508C74.7967 37.014 76.5311 35.8634 78.5634 35.6602C79.6951 35.5012 80.9304 35.4924 82.0381 35.7489C83.588 34.4595 85.4259 33.4593 87.4014 32.8519C92.1267 31.281 95.6596 31.1967 98.5658 32.5193ZM81.5867 41.3355C81.6663 41.9014 81.8961 42.3637 82.2876 42.8033C82.7713 43.3123 83.6138 43.4412 84.2151 43.027C84.4348 42.8312 84.5738 42.6468 84.7014 42.3816C85.1663 40.9973 84.6966 39.4146 83.498 38.5114C83.2214 38.303 82.9448 38.0946 82.5987 37.9783C82.0316 38.6351 81.6488 39.4308 81.5199 40.2733C81.5767 40.6775 81.5413 41.0122 81.5867 41.3355ZM77.1568 45.0082C77.2756 43.5077 76.9221 41.5789 75.4116 40.802C75.3194 40.7325 75.2385 40.7439 75.1463 40.6744C75.0415 41.1013 75.0061 41.436 75.0515 41.7594C75.0148 42.6713 75.2206 43.5492 75.7384 44.3008C76.1186 44.6595 76.649 44.9147 77.1568 45.0082Z" fill="#44D5A7"/>
<path d="M33.4086 73.3848L35.1975 68.517C35.627 67.4674 36.7828 66.8928 37.8324 67.3223C38.1785 67.4386 38.5472 67.7165 38.7544 68.0171L41.8157 72.2032C42.0229 72.5039 42.3917 72.7818 42.7377 72.898L47.6055 74.6869C48.6551 75.1165 49.2297 76.2722 48.8002 77.3218C48.6839 77.6679 48.406 78.0367 48.1054 78.2438L43.9193 81.3052C43.6186 81.5123 43.3407 81.8811 43.2245 82.2272L41.4356 87.0949C41.006 88.1445 39.8503 88.7191 38.8007 88.2896C38.4546 88.1734 38.0858 87.8955 37.8787 87.5948L34.8173 83.4087C34.6102 83.1081 34.2414 82.8302 33.8953 82.7139L29.0276 80.925C27.978 80.4955 27.4034 79.3397 27.8329 78.2901C27.9491 77.9441 28.2271 77.5753 28.5277 77.3681L32.7138 74.3068C33.0031 74.0188 33.2923 73.7308 33.4086 73.3848Z" fill="#DEF0FF"/>
<path d="M109.375 7.90529C110.192 2.51753 103.743 0.231812 103.743 0.231812L102.437 3.66038C106.273 4.63997 106.681 9.86447 106.681 9.86447L109.375 7.90529Z" fill="#E87073"/>
</g>
<defs>
<clipPath id="clip0_363_2919">
<rect width="200" height="131.429" fill="white"/>
</clipPath>
</defs>
</svg>
